<?xml version="1.0" encoding="UTF-8" standalone="no"?>
<!-- Created with Inkscape (http://www.inkscape.org/) -->

<svg
   width="160mm"
   height="55mm"
   viewBox="0 0 160 55"
   version="1.1"
   id="svg1070"
   inkscape:version="1.1.2 (1:1.1+202202050852+0a00cf5339)"
   sodipodi:docname="madrasah-diniyah.svg"
   xmlns:inkscape="http://www.inkscape.org/namespaces/inkscape"
   xmlns:sodipodi="http://sodipodi.sourceforge.net/DTD/sodipodi-0.dtd"
   xmlns="http://www.w3.org/2000/svg"
   xmlns:svg="http://www.w3.org/2000/svg">
  <sodipodi:namedview
     id="namedview1072"
     pagecolor="#505050"
     bordercolor="#eeeeee"
     borderopacity="1"
     inkscape:pageshadow="0"
     inkscape:pageopacity="0"
     inkscape:pagecheckerboard="0"
     inkscape:document-units="mm"
     showgrid="false"
     inkscape:zoom="0.50522221"
     inkscape:cx="616.56038"
     inkscape:cy="25.731252"
     inkscape:window-width="1920"
     inkscape:window-height="1044"
     inkscape:window-x="0"
     inkscape:window-y="36"
     inkscape:window-maximized="1"
     inkscape:current-layer="layer1" />
  <defs
     id="defs1067" />
  <g
     inkscape:label="Layer 1"
     inkscape:groupmode="layer"
     id="layer1">
    <g
       id="g706"
       transform="matrix(0.26458333,0,0,0.26458333,-30.647555,-125.35175)"
       style="display:inline;fill:#b3b3b3">
      <path
         d="m 352.67292,601.27159 q 0,0.96399 -0.34022,1.58775 -0.34024,0.62376 -1.36094,0.62376 h -11.96484 q -0.62377,0 -1.07742,-0.62376 -0.39693,-0.68047 -0.39693,-1.58775 V 543.432 q 0,-4.08278 1.70116,-7.65523 1.70116,-3.57245 4.59314,-6.2376 2.94868,-2.72186 6.74795,-4.25292 3.85598,-1.53104 8.10888,-1.53104 3.79927,0 7.2583,1.24752 3.51574,1.24751 6.35102,3.45904 2.77857,-2.21153 6.2376,-3.45904 3.51573,-1.24752 7.37171,-1.24752 4.25291,0 8.10889,1.53104 3.85596,1.53106 6.74793,4.25292 2.89199,2.66515 4.59316,6.2376 1.75787,3.57245 1.75787,7.65523 v 57.78288 q 0,0.85058 -0.39694,1.58775 -0.39695,0.68047 -1.36093,0.68047 h -11.51122 q -0.90729,0 -1.36093,-0.68047 -0.45364,-0.68047 -0.45364,-1.58775 v -56.9323 q 0,-1.36092 -0.45364,-2.55174 -0.39694,-1.24752 -1.19082,-2.1548 -0.73716,-0.96399 -1.87129,-1.53106 -1.1341,-0.56704 -2.55174,-0.56704 -1.41763,0 -2.55174,0.56704 -1.07741,0.51036 -1.87128,1.41764 -0.73717,0.90729 -1.19081,2.09811 -0.39695,1.19081 -0.45365,2.49504 v 57.27252 q 0,0.90729 -0.34024,1.53105 -0.28353,0.62376 -1.30421,0.62376 h -11.96486 q -0.62376,0 -1.07741,-0.62376 -0.45365,-0.68047 -0.45365,-1.58775 v -56.98901 q 0,-1.36092 -0.39693,-2.55174 -0.39694,-1.24752 -1.19081,-2.1548 -0.73718,-0.96399 -1.87129,-1.53106 -1.1341,-0.56704 -2.55174,-0.56704 -1.47434,0 -2.60846,0.56704 -1.0774,0.56707 -1.87127,1.53106 -0.79388,0.90728 -1.19081,2.1548 -0.39695,1.19082 -0.39695,2.55174 z"
         style="font-weight:normal;font-size:92.5441px;line-height:125%;font-family:'Sugo Pro Display Trial';-inkscape-font-specification:'Sugo Pro Display Trial';text-align:center;letter-spacing:0px;word-spacing:0px;text-anchor:middle;fill:#b3b3b3;stroke-width:4.355px"
         id="path555"
         inkscape:export-filename="Logo Madeenah.png"
         inkscape:export-xdpi="189.56938"
         inkscape:export-ydpi="189.56938" />
      <path
         id="path557"
         style="font-weight:normal;font-size:92.5441px;line-height:125%;font-family:'Sugo Pro Display Trial';-inkscape-font-specification:'Sugo Pro Display Trial';text-align:center;letter-spacing:0px;word-spacing:0px;text-anchor:middle;fill:#b3b3b3;stroke-width:4.355px"
         d="m 432.68467,544.33878 c -2.00359,0 -3.79963,0.15131 -5.38738,0.45373 -1.54995,0.26463 -2.98585,0.62475 -4.30899,1.07838 -1.28532,0.45365 -2.49579,0.98172 -3.6299,1.58658 -1.0963,0.56706 -2.15396,1.17229 -3.17465,1.81495 -0.49144,0.30243 -0.85156,0.58689 -1.07838,0.85151 -0.2268,0.26463 -0.37811,0.54758 -0.45374,0.85 -0.0378,0.26463 -0.0181,0.54758 0.0575,0.85 0.0756,0.26463 0.16941,0.52942 0.28283,0.79404 l 2.83586,6.29486 c 0.30242,0.56707 0.69886,0.8122 1.1903,0.73656 0.49144,-0.0756 1.00135,-0.28289 1.53061,-0.62313 1.0585,-0.75606 2.36278,-1.43697 3.91273,-2.04181 1.58775,-0.64267 3.55478,-0.96345 5.89859,-0.96345 1.28533,1e-5 2.38079,0.24512 3.28808,0.73658 0.90729,0.49144 1.64415,1.11483 2.21122,1.8709 0.56705,0.75608 0.98315,1.58828 1.24778,2.49556 0.26463,0.9073 0.39777,1.79547 0.39777,2.66496 v 4.02616 l -6.69111,-0.056 c -2.38163,-0.0378 -4.68909,0.28296 -6.9195,0.96343 -2.1926,0.64266 -4.12028,1.664 -5.78364,3.06273 -1.66336,1.36093 -3.00547,3.1373 -4.02617,5.32991 -0.9829,2.1548 -1.47465,4.72553 -1.47465,7.71202 v 1.24778 c 0,3.28892 0.60525,6.10477 1.81495,8.44859 1.20972,2.34383 2.76065,4.25334 4.65081,5.72768 1.928,1.47435 4.0448,2.55166 6.35082,3.23213 2.34381,0.71827 4.6301,1.07687 6.86051,1.07687 1.02069,0 2.21149,-0.11348 3.57243,-0.34031 1.36093,-0.18902 2.76053,-0.52946 4.19707,-1.02091 1.43653,-0.52924 2.8543,-1.20862 4.25303,-2.0403 1.39874,-0.86948 2.64552,-1.9468 3.74182,-3.23213 1.13412,-1.28532 2.04197,-2.81656 2.72243,-4.59333 0.68047,-1.77677 1.02091,-3.83761 1.02091,-6.18142 v -24.72416 c 0,-2.94868 -0.5674,-5.53757 -1.70152,-7.76799 -1.0963,-2.2682 -2.55189,-4.15807 -4.36646,-5.6702 -1.77677,-1.54995 -3.81792,-2.70293 -6.12395,-3.459 -2.26821,-0.79388 -4.57416,-1.19181 -6.91799,-1.19181 z m -4.3105,35.62142 c 0.23278,-0.005 0.46256,0.0462 0.67001,0.14974 7.8e-4,4.5e-4 0.002,7.7e-4 0.003,0.002 l 8.53631,4.9291 c 0.39421,0.25453 0.6549,0.69631 0.6549,1.20241 0,0.50034 -0.25461,0.93898 -0.64128,1.19485 -0.002,0.002 -0.002,0.003 -0.003,0.005 l -8.53027,4.92456 c -0.41864,0.2173 -0.93435,0.22256 -1.37483,-0.0317 -0.43331,-0.25016 -0.68713,-0.6897 -0.71539,-1.15249 0,-7.7e-4 3.2e-4,-0.002 0,-0.003 v -9.85064 c 0.0211,-0.4712 0.27491,-0.92087 0.71539,-1.17518 v -0.002 c 0.21666,-0.1251 0.45236,-0.18682 0.68515,-0.19207 z" />
      <path
         d="m 495.4573,587.32204 q 0,3.85597 -1.53105,7.03148 -1.47434,3.11879 -4.13951,5.44372 -2.60844,2.26822 -6.18089,3.51574 -3.51574,1.24752 -7.54182,1.24752 -4.0261,0 -7.59853,-1.24752 -3.51574,-1.24752 -6.18091,-3.51574 -2.60844,-2.32493 -4.1395,-5.44372 -1.53104,-3.17551 -1.53104,-7.03148 v -25.80099 q 0,-3.79926 1.30422,-6.97477 1.36093,-3.17551 3.68585,-5.44373 2.38164,-2.26822 5.55714,-3.51573 3.23222,-1.24753 7.03148,-1.24753 3.23222,0 6.91807,1.58775 v -18.99633 q 0,-1.92798 1.87129,-1.92798 h 10.54721 q 1.92799,0 1.92799,1.92798 z m -14.34649,-25.57417 q -0.0567,-0.90728 -0.45364,-1.75787 -0.34024,-0.90729 -1.02071,-1.58775 -0.68046,-0.68046 -1.58774,-1.0774 -0.90729,-0.39693 -2.0414,-0.39693 -2.32492,0 -3.68586,1.58774 -1.36093,1.53104 -1.36093,3.45904 v 24.9504 q 0,0.964 0.34023,1.87128 0.34024,0.90729 0.964,1.64447 0.68046,0.68046 1.58774,1.1341 0.96401,0.39694 2.15482,0.39694 1.13411,0 2.0414,-0.39694 0.96399,-0.45364 1.64445,-1.1341 0.68047,-0.73718 1.02071,-1.64447 0.39693,-0.90728 0.39693,-1.87128 z"
         style="font-weight:normal;font-size:92.5441px;line-height:125%;font-family:'Sugo Pro Display Trial';-inkscape-font-specification:'Sugo Pro Display Trial';text-align:center;letter-spacing:0px;word-spacing:0px;text-anchor:middle;fill:#b3b3b3;stroke-width:4.355px"
         id="path559" />
      <path
         d="m 500.27726,561.52105 q 0,-3.57245 1.47433,-6.69124 1.53106,-3.11881 4.13951,-5.44373 2.66516,-2.32493 6.12419,-3.68586 3.51574,-1.36093 7.54182,-1.36093 4.0828,0 7.48513,1.36093 3.40232,1.36093 5.78395,3.68586 2.43835,2.32492 3.79928,5.44373 1.36093,3.11879 1.36093,6.69124 v 14.06296 q 0,0.96399 -0.62377,1.53104 -0.62375,0.56706 -1.58776,0.56706 h -21.15113 v 9.63993 q 0,0.96399 0.39694,1.87128 0.39693,0.85058 1.0774,1.58775 0.68046,0.68047 1.64446,1.13411 0.964,0.39694 2.15481,0.39694 1.19082,0 2.15481,-0.45365 0.964,-0.45365 1.58775,-1.13411 0.62376,-0.73716 0.964,-1.64445 0.34022,-0.9073 0.34022,-1.87127 v -1.64447 q 0,-0.51035 0.39694,-0.90728 0.39695,-0.45365 1.19082,-0.45365 h 9.86675 q 0.68047,0 1.07741,0.34023 0.39693,0.28353 0.39693,1.13411 v 1.64446 q 0,3.57244 -1.36093,6.74795 -1.30422,3.11879 -3.74256,5.50043 -2.38162,2.32492 -5.78396,3.68585 -3.34562,1.30423 -7.42842,1.30423 -4.02608,0 -7.54182,-1.30423 -3.45903,-1.36093 -6.12419,-3.68585 -2.60845,-2.38164 -4.13951,-5.50043 -1.47433,-3.17551 -1.47433,-6.74795 z m 14.34648,6.46443 h 10.32039 v -6.29431 q 0,-1.98469 -1.36093,-3.51574 -1.36092,-1.53104 -3.68585,-1.53104 -2.38163,0 -3.85597,1.53104 -1.41764,1.53105 -1.41764,3.45903 z"
         style="font-weight:normal;font-size:92.5441px;line-height:125%;font-family:'Sugo Pro Display Trial';-inkscape-font-specification:'Sugo Pro Display Trial';text-align:center;letter-spacing:0px;word-spacing:0px;text-anchor:middle;fill:#b3b3b3;stroke-width:4.355px"
         id="path561" />
      <path
         d="m 542.63623,561.52105 q 0,-3.57245 1.47435,-6.69124 1.53106,-3.11881 4.1395,-5.44373 2.66516,-2.32493 6.1242,-3.68586 3.51574,-1.36093 7.54182,-1.36093 4.08279,0 7.48513,1.36093 3.40232,1.36093 5.78396,3.68586 2.43832,2.32492 3.79925,5.44373 1.36094,3.11879 1.36094,6.69124 v 14.06296 q 0,0.96399 -0.62377,1.53104 -0.62375,0.56706 -1.58774,0.56706 h -21.15115 v 9.63993 q 0,0.96399 0.39694,1.87128 0.39694,0.85058 1.0774,1.58775 0.68047,0.68047 1.64447,1.13411 0.96399,0.39694 2.15481,0.39694 1.19081,0 2.1548,-0.45365 0.96399,-0.45365 1.58775,-1.13411 0.62377,-0.73716 0.964,-1.64445 0.34024,-0.9073 0.34024,-1.87127 v -1.64447 q 0,-0.51035 0.39693,-0.90728 0.39693,-0.45365 1.19081,-0.45365 h 9.86675 q 0.68046,0 1.07742,0.34023 0.39693,0.28353 0.39693,1.13411 v 1.64446 q 0,3.57244 -1.36093,6.74795 -1.30424,3.11879 -3.74256,5.50043 -2.38164,2.32492 -5.78396,3.68585 -3.34563,1.30423 -7.42842,1.30423 -4.02608,0 -7.54182,-1.30423 -3.45904,-1.36093 -6.1242,-3.68585 -2.60844,-2.38164 -4.1395,-5.50043 -1.47435,-3.17551 -1.47435,-6.74795 z m 14.34649,6.46443 h 10.32041 v -6.29431 q 0,-1.98469 -1.36094,-3.51574 -1.36093,-1.53104 -3.68585,-1.53104 -2.38164,0 -3.85598,1.53104 -1.41764,1.53105 -1.41764,3.45903 z"
         style="font-weight:normal;font-size:92.5441px;line-height:125%;font-family:'Sugo Pro Display Trial';-inkscape-font-specification:'Sugo Pro Display Trial';text-align:center;letter-spacing:0px;word-spacing:0px;text-anchor:middle;fill:#b3b3b3;stroke-width:4.355px"
         id="path563" />
      <path
         d="m 610.39927,561.80457 q -0.11345,-1.98468 -1.41764,-3.40232 -1.30422,-1.47433 -3.62914,-1.47433 -2.38164,0 -3.68586,1.47433 -1.30422,1.47435 -1.41764,3.45903 v 39.63713 q 0,1.98469 -1.58775,1.98469 h -11.05757 q -0.73717,0 -1.24752,-0.51036 -0.45364,-0.51034 -0.45364,-1.47433 v -39.58042 q 0,-3.45903 1.36093,-6.63454 1.41764,-3.17551 3.91268,-5.61384 2.55174,-2.43834 6.01078,-3.85597 3.51574,-1.47435 7.71194,-1.47435 4.76325,0 8.44913,1.41764 3.68585,1.36093 6.18089,3.74256 2.55174,2.38163 3.85596,5.55714 1.36093,3.1755 1.36093,6.80465 v 39.69384 q 0,0.96398 -0.51034,1.47433 -0.45365,0.45365 -1.19081,0.45365 h -10.94416 q -0.73718,0 -1.24753,-0.45365 -0.45364,-0.51035 -0.45364,-1.47433 z"
         style="font-weight:normal;font-size:92.5441px;line-height:125%;font-family:'Sugo Pro Display Trial';-inkscape-font-specification:'Sugo Pro Display Trial';text-align:center;letter-spacing:0px;word-spacing:0px;text-anchor:middle;fill:#b3b3b3;stroke-width:4.355px"
         id="path565" />
      <path
         id="path567"
         style="font-weight:normal;font-size:92.5441px;line-height:125%;font-family:'Sugo Pro Display Trial';-inkscape-font-specification:'Sugo Pro Display Trial';text-align:center;letter-spacing:0px;word-spacing:0px;text-anchor:middle;fill:#b3b3b3;stroke-width:4.355px"
         d="m 650.1505,544.33878 c -2.00359,0 -3.79963,0.15131 -5.38738,0.45373 -1.54995,0.26463 -2.98739,0.62475 -4.3105,1.07838 -1.28533,0.45365 -2.49429,0.98172 -3.62839,1.58658 -1.09631,0.56706 -2.15546,1.17229 -3.17616,1.81495 -0.49145,0.30243 -0.85006,0.58689 -1.07688,0.85151 -0.2268,0.26463 -0.37811,0.54758 -0.45374,0.85 -0.0379,0.26463 -0.0181,0.54758 0.0575,0.85 0.0756,0.26463 0.16942,0.52942 0.28283,0.79404 l 2.83587,6.29486 c 0.30242,0.56707 0.69885,0.8122 1.1903,0.73656 0.49144,-0.0756 1.00135,-0.28289 1.53061,-0.62313 1.05849,-0.75606 2.36279,-1.43697 3.91272,-2.04181 1.58775,-0.64267 3.55326,-0.96345 5.89708,-0.96345 1.28533,1e-5 2.38232,0.24512 3.2896,0.73658 0.90729,0.49144 1.64416,1.11483 2.21121,1.8709 0.56706,0.75608 0.98315,1.58828 1.24778,2.49556 0.26462,0.9073 0.39627,1.79547 0.39627,2.66496 v 4.02616 l -6.69112,-0.056 c -2.38161,-0.0378 -4.68757,0.28296 -6.91799,0.96343 -2.1926,0.64266 -4.12028,1.664 -5.78364,3.06273 -1.66335,1.36093 -3.00546,3.1373 -4.02616,5.32991 -0.98289,2.1548 -1.47465,4.72553 -1.47465,7.71202 v 1.24778 c 0,3.28892 0.60524,6.10477 1.81495,8.44859 1.20971,2.34383 2.75912,4.25334 4.6493,5.72768 1.92798,1.47435 4.0463,2.55166 6.35233,3.23213 2.34381,0.71827 4.63009,1.07687 6.8605,1.07687 1.02071,0 2.21151,-0.11348 3.57243,-0.34031 1.36093,-0.18902 2.76055,-0.52946 4.19707,-1.02091 1.43654,-0.52924 2.85279,-1.20862 4.25153,-2.0403 1.39873,-0.86948 2.64704,-1.9468 3.74333,-3.23213 1.13411,-1.28532 2.04196,-2.81656 2.72243,-4.59333 0.68045,-1.77677 1.01939,-3.83761 1.0194,-6.18142 v -24.72416 c 0,-2.94868 -0.56591,-5.53757 -1.70001,-7.76799 -1.0963,-2.2682 -2.5519,-4.15807 -4.36647,-5.6702 -1.77677,-1.54995 -3.81793,-2.70293 -6.12394,-3.459 -2.26821,-0.79388 -4.57416,-1.19181 -6.91799,-1.19181 z m -4.31202,35.62142 c 0.23278,-0.005 0.46407,0.0462 0.67153,0.14974 7.7e-4,4.5e-4 0.002,7.7e-4 0.003,0.002 l 8.53631,4.9291 c 0.39422,0.25453 0.6549,0.69631 0.6549,1.20241 0,0.50034 -0.25462,0.93898 -0.64129,1.19485 -0.002,0.002 -0.002,0.003 -0.003,0.005 l -8.53027,4.92456 c -0.41863,0.2173 -0.93435,0.22256 -1.37482,-0.0317 -0.43331,-0.25016 -0.68713,-0.6897 -0.7154,-1.15249 0,-7.7e-4 3.2e-4,-0.002 0,-0.003 v -9.85064 c 0.0211,-0.4712 0.27492,-0.92087 0.7154,-1.17518 v -0.002 c 0.21665,-0.1251 0.45085,-0.18682 0.68363,-0.19207 z" />
      <path
         d="m 699.59697,561.9747 q 0,-1.0207 -0.39694,-1.928 -0.34023,-0.90728 -1.0207,-1.58774 -0.62375,-0.68047 -1.58775,-1.0774 -0.90729,-0.45364 -1.98469,-0.45364 -1.19081,0 -2.15481,0.51034 -0.90728,0.45363 -1.58775,1.24752 -0.62376,0.79388 -0.964,1.81457 -0.34023,0.96399 -0.39693,1.9847 v 38.89994 q 0,0.79388 -0.56706,1.47435 -0.56705,0.62376 -1.98469,0.62376 h -9.92345 q -1.92799,0 -1.92799,-1.81457 v -74.73782 q 0,-1.92798 1.92799,-1.92798 h 10.60392 q 1.87128,0 1.87128,1.92798 v 20.07374 q 1.98469,-1.24752 4.19621,-1.92798 2.26821,-0.73718 4.64983,-0.73718 3.28893,0 6.1242,1.24753 2.89197,1.24751 4.99008,3.57244 2.15481,2.26821 3.34563,5.55713 1.19081,3.23221 1.19081,7.2016 v 39.63713 q 0,0.96398 -0.51035,1.47433 -0.51035,0.45365 -1.19082,0.45365 h -11.00085 q -0.73717,0 -1.24753,-0.45365 -0.45364,-0.51035 -0.45364,-1.47433 z"
         style="font-weight:normal;font-size:92.5441px;line-height:125%;font-family:'Sugo Pro Display Trial';-inkscape-font-specification:'Sugo Pro Display Trial';text-align:center;letter-spacing:0px;word-spacing:0px;text-anchor:middle;fill:#b3b3b3;stroke-width:4.355px"
         id="path569" />
      <g
         aria-label="Madrasah Diniyah"
         id="text573"
         style="font-weight:bold;font-size:47.4141px;line-height:125%;font-family:'Open Sans';-inkscape-font-specification:'Open Sans Bold';text-align:center;letter-spacing:0px;word-spacing:0px;text-anchor:middle;fill:#b3b3b3;stroke-width:1.77802px">
        <path
           d="m 361.5239,650.55823 v -19.67685 l -6.44831,12.8018 h -4.45693 l -6.49573,-12.8018 v 19.67685 h -6.59056 v -33.75884 h 6.49573 l 8.81902,18.25443 8.77161,-18.25443 h 6.49573 v 33.75884 z"
           style="font-family:'DIN Pro';-inkscape-font-specification:'DIN Pro Bold';fill:#b3b3b3"
           id="path646" />
        <path
           d="m 388.17067,650.55823 v -2.13364 q -2.37071,2.37071 -6.06901,2.37071 -4.12503,0 -6.30607,-2.18105 -2.03881,-2.13364 -2.03881,-5.54745 0,-3.12933 2.08622,-5.07331 2.22846,-2.08622 6.35349,-2.08622 h 5.83193 v -1.23277 q 0,-3.88795 -4.59916,-3.88795 -2.98709,0 -4.74141,2.0388 l -3.93537,-3.84054 q 3.12933,-3.41381 8.91385,-3.41381 10.52593,0 10.52593,8.72419 v 16.26304 z m -0.14225,-10.4311 h -4.88365 q -3.46123,0 -3.46123,2.79743 0,2.84484 3.55606,2.84484 2.65519,0 3.88796,-1.18535 0.90086,-0.85345 0.90086,-3.12933 z"
           style="font-family:'DIN Pro';-inkscape-font-specification:'DIN Pro Bold';fill:#b3b3b3"
           id="path648" />
        <path
           d="m 414.48551,650.55823 v -2.32329 q -2.32329,2.60777 -6.11642,2.60777 -3.84054,0 -6.069,-2.22846 -1.6595,-1.65949 -2.18105,-4.74141 -0.23707,-1.23277 -0.28449,-2.84485 -0.0474,-1.04311 -0.0474,-2.84484 0,-1.80174 0.0474,-2.84485 0.0474,-1.61208 0.28449,-2.79743 0.52155,-3.08192 2.18105,-4.74141 2.22846,-2.22846 6.02159,-2.22846 3.79313,0 6.02159,2.46553 v -11.23714 h 6.16383 v 33.75884 z m -0.14224,-12.37508 q 0,-3.50865 -0.71121,-5.0259 -0.94828,-2.0388 -3.50865,-2.0388 -2.56036,0 -3.46123,2.0388 -0.71121,1.51725 -0.71121,5.0259 0,3.55605 0.71121,5.07331 0.90087,2.0388 3.46123,2.0388 2.56037,0 3.50865,-2.0388 0.71121,-1.56467 0.71121,-5.07331 z"
           style="font-family:'DIN Pro';-inkscape-font-specification:'DIN Pro Bold';fill:#b3b3b3"
           id="path650" />
        <path
           d="m 440.84779,632.58828 q -1.46984,-1.46983 -3.27158,-1.46983 -1.56466,0 -2.7026,1.09052 -1.28018,1.28018 -1.28018,3.46123 v 14.88803 h -6.16383 v -24.70275 h 6.02159 v 2.37071 q 2.22846,-2.65519 6.21124,-2.65519 3.50865,0 5.83194,2.32329 z"
           style="font-family:'DIN Pro';-inkscape-font-specification:'DIN Pro Bold';fill:#b3b3b3"
           id="path652" />
        <path
           d="m 461.18843,650.55823 v -2.13364 q -2.37071,2.37071 -6.06901,2.37071 -4.12502,0 -6.30607,-2.18105 -2.03881,-2.13364 -2.03881,-5.54745 0,-3.12933 2.08622,-5.07331 2.22846,-2.08622 6.35349,-2.08622 h 5.83194 v -1.23277 q 0,-3.88795 -4.59917,-3.88795 -2.98709,0 -4.74141,2.0388 l -3.93537,-3.84054 q 3.12933,-3.41381 8.91385,-3.41381 10.52593,0 10.52593,8.72419 v 16.26304 z m -0.14224,-10.4311 h -4.88366 q -3.46123,0 -3.46123,2.79743 0,2.84484 3.55606,2.84484 2.65519,0 3.88796,-1.18535 0.90087,-0.85345 0.90087,-3.12933 z"
           style="font-family:'DIN Pro';-inkscape-font-specification:'DIN Pro Bold';fill:#b3b3b3"
           id="path654" />
        <path
           d="m 492.43434,642.78232 q 0,3.93537 -3.03451,6.069 -2.84484,1.99139 -7.44401,1.99139 -1.65949,0 -2.84485,-0.0948 -1.46983,-0.14224 -2.7026,-0.52155 -2.84485,-0.80604 -4.97848,-2.93968 l 4.0302,-4.03019 q 1.37501,1.375 3.3664,1.94397 1.37501,0.37932 3.22416,0.37932 1.80173,0 2.98709,-0.56897 1.375,-0.71121 1.375,-1.99139 0,-2.03881 -2.60777,-2.27588 l -3.88796,-0.37931 q -7.20694,-0.71122 -7.20694,-6.92246 0,-3.6983 2.89226,-5.87935 2.65519,-1.99139 6.63797,-1.99139 3.08192,0 5.26297,0.61638 2.46553,0.71121 4.17244,2.27588 l -3.79313,3.84054 q -0.99569,-0.90087 -2.60777,-1.3276 -1.37501,-0.33189 -3.12933,-0.33189 -3.50865,0 -3.50865,2.3707 0,1.89656 2.56036,2.13363 l 3.88796,0.37932 q 7.34919,0.71121 7.34919,7.25436 z"
           style="font-family:'DIN Pro';-inkscape-font-specification:'DIN Pro Bold';fill:#b3b3b3"
           id="path656" />
        <path
           d="m 510.26201,650.55823 v -2.13364 q -2.3707,2.37071 -6.069,2.37071 -4.12503,0 -6.30608,-2.18105 -2.0388,-2.13364 -2.0388,-5.54745 0,-3.12933 2.08622,-5.07331 2.22846,-2.08622 6.35349,-2.08622 h 5.83193 v -1.23277 q 0,-3.88795 -4.59917,-3.88795 -2.98709,0 -4.74141,2.0388 l -3.93537,-3.84054 q 3.12933,-3.41381 8.91385,-3.41381 10.52593,0 10.52593,8.72419 v 16.26304 z m -0.14224,-10.4311 h -4.88365 q -3.46123,0 -3.46123,2.79743 0,2.84484 3.55606,2.84484 2.65519,0 3.88795,-1.18535 0.90087,-0.85345 0.90087,-3.12933 z"
           style="font-family:'DIN Pro';-inkscape-font-specification:'DIN Pro Bold';fill:#b3b3b3"
           id="path658" />
        <path
           d="m 537.09842,650.55823 v -15.07769 q 0,-2.27587 -1.28018,-3.41381 -1.09053,-0.94828 -2.75002,-0.94828 -1.65949,0 -2.70261,0.94828 -1.28018,1.18535 -1.28018,3.41381 v 15.07769 h -6.16383 v -33.75884 h 6.16383 v 11.33197 q 2.51295,-2.56036 5.92677,-2.56036 3.93537,0 6.16383,2.56036 2.08622,2.41812 2.08622,6.44832 v 15.97855 z"
           style="font-family:'DIN Pro';-inkscape-font-specification:'DIN Pro Bold';fill:#b3b3b3"
           id="path660" />
        <path
           d="m 585.88755,637.28228 q -0.0474,2.13363 -0.28449,3.65089 -0.61638,3.88795 -3.12933,6.4009 -3.22416,3.22416 -8.91385,3.22416 h -12.18542 v -33.75884 h 12.18542 q 5.68969,0 8.91385,3.22416 2.51295,2.51294 3.12933,6.25866 0.23707,1.46984 0.28449,3.55606 z m -6.59056,-3.74571 q 0,-7.01729 -1.42243,-8.77161 -1.7069,-2.08622 -4.93106,-2.08622 h -4.97848 v 22.00014 h 4.97848 q 3.22416,0 4.93106,-2.08622 1.42243,-1.75432 1.42243,-9.05609 z"
           style="font-family:'DIN Pro';-inkscape-font-specification:'DIN Pro Bold';fill:#b3b3b3"
           id="path662" />
        <path
           d="m 592.14623,650.55823 v -24.70275 h 6.16383 v 24.70275 z m -0.0948,-28.9226 v -5.0259 h 6.30607 v 5.0259 z"
           style="font-family:'DIN Pro';-inkscape-font-specification:'DIN Pro Bold';fill:#b3b3b3"
           id="path664" />
        <path
           d="m 619.55156,650.55823 v -14.93544 q 0,-2.3233 -1.32759,-3.50865 -1.09053,-0.99569 -2.75002,-0.99569 -1.70691,0 -2.79743,0.99569 -1.3276,1.18535 -1.3276,3.50865 v 14.93544 h -6.16383 v -24.70275 h 6.02159 v 2.27588 q 2.41812,-2.56036 6.16383,-2.56036 3.65089,0 5.83194,2.18105 1.42242,1.42242 1.99139,3.22415 0.52156,1.56467 0.52156,3.79313 v 15.7889 z"
           style="font-family:'DIN Pro';-inkscape-font-specification:'DIN Pro Bold';fill:#b3b3b3"
           id="path666" />
        <path
           d="m 632.35336,650.55823 v -24.70275 h 6.16384 v 24.70275 z m -0.0948,-28.9226 v -5.0259 h 6.30607 v 5.0259 z"
           style="font-family:'DIN Pro';-inkscape-font-specification:'DIN Pro Bold';fill:#b3b3b3"
           id="path668" />
        <path
           d="m 654.59055,654.54101 q -0.80604,2.13364 -1.84915,3.17675 -1.89657,1.89656 -5.31038,1.89656 h -2.41812 v -5.54745 h 1.42242 q 2.32329,0 3.08192,-2.22846 l 1.04311,-3.0345 -8.43971,-22.94843 h 6.49573 l 5.12072,15.26734 4.93107,-15.26734 h 6.49573 z"
           style="font-family:'DIN Pro';-inkscape-font-specification:'DIN Pro Bold';fill:#b3b3b3"
           id="path670" />
        <path
           d="m 681.00017,650.55823 v -2.13364 q -2.3707,2.37071 -6.069,2.37071 -4.12503,0 -6.30608,-2.18105 -2.0388,-2.13364 -2.0388,-5.54745 0,-3.12933 2.08622,-5.07331 2.22846,-2.08622 6.35349,-2.08622 h 5.83193 v -1.23277 q 0,-3.88795 -4.59917,-3.88795 -2.98709,0 -4.74141,2.0388 l -3.93537,-3.84054 q 3.12933,-3.41381 8.91385,-3.41381 10.52593,0 10.52593,8.72419 v 16.26304 z m -0.14224,-10.4311 h -4.88365 q -3.46123,0 -3.46123,2.79743 0,2.84484 3.55606,2.84484 2.65519,0 3.88795,-1.18535 0.90087,-0.85345 0.90087,-3.12933 z"
           style="font-family:'DIN Pro';-inkscape-font-specification:'DIN Pro Bold';fill:#b3b3b3"
           id="path672" />
        <path
           d="m 707.83658,650.55823 v -15.07769 q 0,-2.27587 -1.28018,-3.41381 -1.09053,-0.94828 -2.75002,-0.94828 -1.6595,0 -2.70261,0.94828 -1.28018,1.18535 -1.28018,3.41381 v 15.07769 h -6.16383 v -33.75884 h 6.16383 v 11.33197 q 2.51295,-2.56036 5.92677,-2.56036 3.93537,0 6.16383,2.56036 2.08622,2.41812 2.08622,6.44832 v 15.97855 z"
           style="font-family:'DIN Pro';-inkscape-font-specification:'DIN Pro Bold';fill:#b3b3b3"
           id="path674" />
      </g>
      <path
         id="path575"
         style="fill:#b3b3b3;fill-opacity:1;stroke-width:0.715047"
         d="m 222.30775,480.63002 c -0.0893,0.002 -0.17717,0.0487 -0.18734,0.1453 l -0.86027,6.45776 c -0.13468,0.0824 -0.26548,0.18135 -0.38234,0.29822 l -3.10844,3.11225 c -0.79246,0.79247 -0.79246,2.06745 0,2.85993 l 2.34375,2.34758 -0.13761,1.02468 c -1.98941,3.72485 -5.99141,7.63793 -7.5742,12.61727 -0.87723,2.76012 4.20725,5.39926 4.34722,8.06359 0.0196,0.36504 -0.0376,0.73372 -0.14154,1.09731 -0.17285,0.1314 -0.22472,0.18828 -0.41675,0.33264 -4.60887,3.46453 -10.51176,6.96905 -24.98603,14.8234 -28.46124,15.44418 -37.74138,27.00963 -43.64434,54.43783 -0.47169,2.19166 -1.61121,9.03266 -2.7911,16.33747 4.0023,-0.31034 8.02525,-0.50232 12.0629,-0.53146 22.21745,-0.16077 44.76375,4.54693 65.34986,20.62353 24.40747,-19.06086 51.56407,-22.13121 77.66894,-20.07295 -3.35882,-21.17233 -5.53925,-28.88563 -10.64823,-39.32003 -2.74855,-5.6135 -4.38578,-7.86222 -9.43237,-12.94228 -7.34741,-7.39606 -13.28411,-11.45601 -29.94119,-20.48587 -11.56815,-6.27115 -18.17872,-10.20392 -21.83172,-13.24433 -0.0959,-0.34974 -0.14467,-0.70065 -0.12627,-1.05144 0.13997,-2.66433 5.2245,-5.30346 4.34724,-8.06358 -1.58279,-4.97935 -5.58476,-8.89628 -7.57418,-12.6211 l -0.13762,-1.0285 2.34376,-2.34376 c 0.79248,-0.79248 0.79248,-2.06746 0,-2.85993 l -3.10844,-3.11225 c -0.11633,-0.11633 -0.24818,-0.21221 -0.38233,-0.2944 l -0.86028,-6.47687 c -0.0121,-0.0899 -0.10184,-0.13223 -0.19106,-0.13001 z" />
      <path
         style="color:#000000;overflow:visible;fill:#b3b3b3;fill-opacity:1;stroke:none;stroke-width:1.08016;paint-order:markers stroke fill;stop-color:#000000"
         d="m 122.39057,641.96069 c 4.41497,-7.57097 14.30486,-17.78451 22.11441,-23.89439 32.70899,-2.57976 67.07317,2.86532 95.6065,37.76749 -6.82522,5.01028 -13.74339,12.56139 -17.92777,18.95108 -16.93924,-22.22559 -36.39943,-39.38483 -99.79314,-32.82418 z"
         id="path577"
         sodipodi:nodetypes="ccccc" />
      <path
         style="color:#000000;overflow:visible;fill:#b3b3b3;fill-opacity:1;stroke:none;stroke-width:1.08016;paint-order:markers stroke fill;stop-color:#000000"
         d="m 321.9703,641.96069 c -4.41499,-7.57095 -14.30486,-17.78451 -22.11443,-23.89439 -32.70904,-2.57974 -67.07311,2.86533 -95.60653,37.76749 6.82532,5.01031 13.74347,12.5614 17.92772,18.9511 16.93931,-22.22559 36.39945,-39.38487 99.79324,-32.8242 z"
         id="path579"
         sodipodi:nodetypes="ccccc" />
      <path
         id="path581"
         style="color:#000000;overflow:visible;fill:#b3b3b3;fill-opacity:1;stroke:none;stroke-width:1.08016;paint-order:markers stroke fill;stop-color:#000000"
         d="m 222.18054,638.13931 c -6.17329,4.82104 -12.17196,10.64733 -17.93169,17.69265 6.78939,4.984 13.66582,12.48213 17.85671,18.85031 0.0252,0.0328 0.0499,0.0656 0.0748,0.0985 0.0252,-0.0328 0.0499,-0.0656 0.075,-0.0985 4.19088,-6.36818 11.06731,-13.86631 17.85671,-18.85031 -5.75974,-7.04532 -11.75838,-12.87161 -17.9317,-17.69265 z" />
      <path
         id="path583"
         style="fill:#b3b3b3;fill-opacity:1;stroke-width:0.715047"
         d="m 156.83169,585.76256 c -2.93331,0.0211 -5.85538,0.1528 -8.77093,0.32881 -0.16561,0.72193 -0.34054,1.41148 -0.50086,2.15641 -0.47168,2.19166 -1.61122,9.03267 -2.7911,16.33747 4.00229,-0.31034 8.02524,-0.50232 12.06289,-0.53144 22.21743,-0.16079 44.76376,4.54692 65.34987,20.62351 24.40745,-19.06085 51.56408,-22.13121 77.66895,-20.07295 -1.22201,-7.70278 -2.28741,-13.59395 -3.39521,-18.513 -25.05587,-1.52526 -50.9221,2.05838 -74.27374,20.29471 -20.58611,-16.07659 -43.13244,-20.78429 -65.34987,-20.62352 z" />
    </g>
  </g>
</svg>
