<?xml version="1.0" encoding="UTF-8" standalone="no"?>
<svg
   version="1.1"
   viewBox="0 0 1080 400"
   id="svg66"
   sodipodi:docname="mahad-bimbingan-islam.svg"
   width="1080"
   height="400"
   inkscape:version="1.1.2 (1:1.1+202202050852+0a00cf5339)"
   xmlns:inkscape="http://www.inkscape.org/namespaces/inkscape"
   xmlns:sodipodi="http://sodipodi.sourceforge.net/DTD/sodipodi-0.dtd"
   xmlns="http://www.w3.org/2000/svg"
   xmlns:svg="http://www.w3.org/2000/svg">
  <defs
     id="defs70" />
  <sodipodi:namedview
     id="namedview68"
     pagecolor="#505050"
     bordercolor="#eeeeee"
     borderopacity="1"
     inkscape:pageshadow="0"
     inkscape:pageopacity="0"
     inkscape:pagecheckerboard="0"
     showgrid="false"
     inkscape:zoom="0.73240741"
     inkscape:cx="540"
     inkscape:cy="350.8976"
     inkscape:window-width="1920"
     inkscape:window-height="1044"
     inkscape:window-x="0"
     inkscape:window-y="36"
     inkscape:window-maximized="1"
     inkscape:current-layer="svg66" />
  <g
     id="g919"
     transform="translate(-12.384766,-325.78856)"
     style="fill:#b3b3b3">
    <circle
       fill="#ea9330"
       fill-opacity="1"
       cx="256.84"
       cy="370.54999"
       r="34.48"
       id="circle2"
       style="fill:#b3b3b3" />
    <path
       fill="#ea9330"
       fill-opacity="1"
       d="m 156.2,372.45 q 34.47,13.66 65.24,33.11 8.15,5.16 18,14 8.75,7.87 14.1,18.33 2.2,4.29 2.92,8.42 0.25,1.48 0.6,0.02 1.62,-6.81 5.43,-12.65 7.59,-11.63 18.61,-20.11 11.09,-8.52 23.25,-15.44 25.44,-14.48 52.99,-25.61 a 0.34,0.34 79.1 0 1 0.47,0.32 l -0.06,47.89 a 1.47,1.46 77.9 0 1 -0.86,1.34 q -4.94,2.29 -10.45,3.97 -22.01,6.71 -42.11,17.85 -28.17,15.63 -41.33,44.69 -1.18,2.62 -1.32,5.7 -2.33,52.98 -4.47,105.97 -0.52,-1.45 -0.67,0.75 -2.2,-53.57 -4.66,-107.13 -0.13,-2.97 -1.29,-5.49 -13.74,-29.93 -43.04,-45.66 -17.52,-9.4 -36.52,-15.31 -7.4,-2.3 -14.48,-5.48 a 1.36,1.34 12.2 0 1 -0.8,-1.23 v -47.95 a 0.33,0.32 11 0 1 0.45,-0.3 z"
       id="path4"
       style="fill:#b3b3b3" />
    <path
       fill="#75b243"
       fill-opacity="1"
       d="m 125.97,414.88 25.69,17.68 a 1.38,1.36 17.6 0 1 0.59,1.12 l 0.04,129.07 q -0.53,1.19 -1.6,1.94 -12.08,11.12 -24.36,22.02 a 0.52,0.41 42.4 0 1 -0.6,-0.04 q -0.19,-0.16 -0.44,-0.17 l -0.04,-171.24 q 0,-0.88 0.72,-0.38 z"
       id="path6"
       style="fill:#b3b3b3" />
    <path
       fill="#75b243"
       fill-opacity="1"
       d="m 389.44,415.31 -0.19,171.15 q -0.32,0.08 -0.63,0.04 -0.27,-0.03 -0.53,-0.27 -12.68,-11.91 -25.88,-23.23 0.5,-1.32 0.29,-2.75 0,0 0,-126.5 a 0.98,0.9 74.4 0 1 0.4,-0.79 l 26.11,-17.88 q 0.43,-0.29 0.43,0.23 z"
       id="path8"
       style="fill:#b3b3b3" />
    <path
       fill="#144459"
       fill-opacity="1"
       d="m 483.09,430.5 h 33.45 a 0.66,0.65 -6.7 0 1 0.64,0.5 l 21.09,81.62 q 0.34,1.33 0.69,0 l 21.1,-81.45 a 0.66,0.65 -82.5 0 1 0.63,-0.49 l 33.51,-0.17 a 0.55,0.54 89.5 0 1 0.55,0.55 l -0.06,152.62 a 0.51,0.5 -90 0 1 -0.5,0.51 l -31.13,0.06 a 0.75,0.75 45 0 1 -0.75,-0.75 l 0.13,-71.46 q 0,-1.64 -0.43,-0.06 l -12.43,45.35 a 1.25,1.24 -82.4 0 1 -1.2,0.92 H 528.6 a 1.17,1.17 -7.4 0 1 -1.13,-0.87 L 515.32,512.8 q -0.14,-0.5 -0.17,0.01 -0.27,4.42 -0.21,18.88 0.1,25.9 0.06,51.65 a 0.91,0.91 -45 0 1 -0.91,0.91 h -31.03 a 0.56,0.56 -0.2 0 1 -0.56,-0.56 l -0.06,-152.53 a 0.66,0.65 90 0 1 0.65,-0.66 z"
       id="path10"
       style="fill:#b3b3b3" />
    <path
       fill="#144459"
       fill-opacity="1"
       d="m 642.7,430.5 33.74,0.06 a 0.61,0.61 84.2 0 1 0.6,0.49 l 32.9,152.4 a 0.66,0.66 -6 0 1 -0.65,0.8 h -31.05 a 0.77,0.77 -4.9 0 1 -0.76,-0.64 L 672.9,559.1 a 0.73,0.72 84.7 0 0 -0.71,-0.6 l -25.64,0.06 a 0.6,0.59 -84.7 0 0 -0.58,0.49 l -4.93,24.65 a 0.61,0.61 -84.2 0 1 -0.6,0.49 h -31.18 a 0.56,0.55 -84.1 0 1 -0.54,-0.67 l 33.3,-152.47 a 0.7,0.7 -83.8 0 1 0.68,-0.55 z m 16.56,51.79 -7.66,47.45 a 0.44,0.44 -85.5 0 0 0.43,0.51 h 14.55 a 0.65,0.64 -3.9 0 0 0.64,-0.73 l -7.04,-47.22 q -0.44,-2.99 -0.92,-0.01 z"
       id="path12"
       style="fill:#b3b3b3" />
    <path
       fill="#144459"
       fill-opacity="1"
       d="m 724.62,430.51 31.2,0.17 a 0.5,0.5 45 0 1 0.5,0.5 l 0.24,61.01 a 0.51,0.5 89.4 0 0 0.5,0.5 l 19.14,0.06 a 0.56,0.55 -90 0 0 0.55,-0.56 v -60.81 a 0.88,0.88 45 0 1 0.88,-0.88 h 30.96 a 0.66,0.66 89.9 0 1 0.66,0.66 v 152.42 a 0.67,0.67 45 0 1 -0.67,0.67 h -31.27 a 0.56,0.56 -45 0 1 -0.56,-0.56 v -61.75 a 0.69,0.69 -45 0 0 -0.69,-0.69 h -18.71 a 0.85,0.85 45 0 0 -0.85,0.85 v 61.27 a 0.88,0.88 45 0 1 -0.88,0.88 h -31.31 a 0.56,0.56 -45 0 1 -0.56,-0.56 v -152.3 a 0.88,0.86 -89.7 0 1 0.87,-0.88 z"
       id="path14"
       style="fill:#b3b3b3" />
    <path
       fill="#144459"
       fill-opacity="1"
       d="m 857.03,430.56 33.58,-0.06 a 0.8,0.8 83.7 0 1 0.78,0.63 l 32.9,152.42 a 0.58,0.57 83.9 0 1 -0.56,0.7 h -31.11 a 0.9,0.88 84.5 0 1 -0.87,-0.73 l -4.47,-24.47 a 0.6,0.6 -5.2 0 0 -0.59,-0.49 l -25.74,-0.06 a 0.82,0.78 -84.1 0 0 -0.77,0.66 l -4.76,24.41 a 0.62,0.62 5.7 0 1 -0.61,0.5 l -31.03,0.13 a 0.69,0.68 -83.5 0 1 -0.66,-0.84 l 33.25,-152.27 a 0.68,0.68 -83.6 0 1 0.66,-0.53 z m 23.98,99.76 a 0.64,0.63 -3.9 0 0 0.63,-0.72 l -7.14,-47.86 q -0.4,-2.66 -0.83,-0.01 l -7.72,47.81 a 0.63,0.62 4.3 0 0 0.62,0.71 z"
       id="path16"
       style="fill:#b3b3b3" />
    <path
       fill="#144459"
       fill-opacity="1"
       d="m 938.81,430.56 q 28.18,-0.15 40.44,-0.06 4.01,0.03 9.74,0.79 14.35,1.9 23.07,11.4 8.69,9.46 11.18,22.11 1.5,7.65 1.5,15.45 0.01,28.25 0.01,56.5 0,12.48 -4.94,23.88 -6.79,15.65 -22.37,21.06 -4.11,1.42 -9.29,2.07 -3.31,0.42 -9.46,0.45 -19.67,0.08 -39.89,0.04 a 0.55,0.55 45 0 1 -0.55,-0.55 l 0.06,-152.63 a 0.51,0.5 -90 0 1 0.5,-0.51 z m 48.69,34.2 q -2.2,-1.89 -5.75,-2.26 -4.74,-0.49 -9.99,-0.5 a 0.95,0.95 0 0 0 -0.95,0.95 l -0.06,89.3 a 1.01,1 0.6 0 0 0.99,1 q 5.03,0.08 10.02,-0.44 6.33,-0.65 8.93,-6.37 2.34,-5.16 1.81,-12.44 0.21,-28.11 -0.2,-56.22 -0.07,-4.99 -0.72,-6.99 -1.14,-3.51 -4.08,-6.03 z"
       id="path18"
       style="fill:#b3b3b3" />
    <path
       fill="#1e90c0"
       fill-opacity="1"
       d="M 81.1,431.61 106.19,449 a 1.88,1.87 17.4 0 1 0.81,1.54 l 0.04,141.21 q -0.77,1.36 -2.1,2.19 -10.95,9.58 -22.21,18.8 -0.04,0.03 -0.94,1.03 -0.65,0.72 -1.75,0.73 L 80,432.18 q 0,-1.33 1.1,-0.57 z"
       id="path20"
       style="fill:#b3b3b3" />
    <path
       fill="#1e90c0"
       fill-opacity="1"
       d="m 435,431.85 q 0,91.53 0,182.9 0,1.2 -0.5,1.54 -0.8,-0.69 -0.84,-1.73 a 1.19,0.97 -75.2 0 0 -0.37,-0.82 q -15.8,-13.15 -24.04,-20.24 -0.64,-0.55 -1.29,-1.75 l 0.1,-141.68 a 0.98,0.93 73.4 0 1 0.4,-0.79 l 25.68,-17.88 q 0.86,-0.59 0.86,0.45 z"
       id="path22"
       style="fill:#b3b3b3" />
    <path
       fill="#499b45"
       fill-opacity="1"
       d="m 152.29,562.75 q 24.42,12.02 46.02,26.44 14.15,9.44 26.65,22.1 17.99,18.22 24.1,43.15 2.91,12.28 5.84,24.57 a 0.2,0.16 81.4 0 1 -0.14,0.24 q -0.07,0 -0.13,-0.03 -0.06,-0.02 -0.09,-0.08 -9.5,-17.99 -24.96,-31.22 -15.29,-13.11 -32.75,-23.18 -35.11,-20.28 -69.77,-36.55 -1.3,-0.62 -1.77,-1.69 0.25,0.01 0.44,0.17 a 0.52,0.41 42.4 0 0 0.6,0.04 q 12.28,-10.9 24.36,-22.02 1.07,-0.75 1.6,-1.94 z"
       id="path24"
       style="fill:#b3b3b3" />
    <path
       fill="#499b45"
       fill-opacity="1"
       d="m 362.21,563 q 13.2,11.32 25.88,23.23 0.26,0.24 0.53,0.27 0.31,0.04 0.63,-0.04 0.36,0.9 -0.31,1.23 -30.23,14.55 -59.73,30.54 -19.36,10.5 -36.88,23.82 -19.4,14.75 -31.28,36.03 -1.36,2.44 -0.72,-0.28 2.21,-9.33 4.49,-19.84 4,-18.46 14.44,-33.7 5.04,-7.37 12.98,-15.17 13.1,-12.88 29.26,-23.09 20.87,-13.19 40.71,-23 z"
       id="path26"
       style="fill:#b3b3b3" />
    <path
       fill="#1a74a5"
       fill-opacity="1"
       d="m 107.04,591.75 q 27.49,13.13 53.89,28.31 26.77,15.39 50.96,34.57 12.37,9.8 23.16,21.32 7.78,8.31 13.85,17.93 5.63,8.92 7.25,20.46 0.25,1.73 -1.19,0.73 -47.96,-33.38 -99.14,-60.4 -40.03,-21.14 -74.51,-37.73 -1.6,-0.77 -1.27,-2.44 1.1,-0.01 1.75,-0.73 0.9,-1 0.94,-1.03 11.26,-9.22 22.21,-18.8 1.33,-0.83 2.1,-2.19 z"
       id="path28"
       style="fill:#b3b3b3" />
    <path
       fill="#1a74a5"
       fill-opacity="1"
       d="m 407.96,591.75 q 0.65,1.2 1.29,1.75 8.24,7.09 24.04,20.24 a 1.19,0.97 -75.2 0 1 0.37,0.82 q 0.04,1.04 0.84,1.73 -10.67,5.49 -21.44,10.76 -50.87,24.89 -88.81,46.95 -33.21,19.31 -64.7,41.32 -0.73,0.51 -0.74,-0.37 -0.04,-2.8 0.75,-5.73 3.07,-11.35 10.88,-21.78 7.62,-10.19 14.68,-17.07 15.44,-15.06 35.07,-28.68 13.4,-9.31 21.5,-14.25 32.18,-19.61 66.27,-35.69 z"
       id="path30"
       style="fill:#b3b3b3" />
    <path
       fill="#499b45"
       fill-opacity="1"
       d="m 257.21,600.25 -0.27,3.19 q -0.09,1.02 -0.45,0.57 -0.16,-0.19 0.01,-1.01 -0.03,-1 0.04,-2 0.15,-2.2 0.67,-0.75 z"
       id="path32"
       style="fill:#b3b3b3" />
    <path
       fill="#144459"
       fill-opacity="1"
       d="M 608.12,608 H 617 a 0.58,0.57 -90 0 1 0.57,0.58 l -0.07,21.69 q -0.01,2.27 1.15,0.31 3.88,-6.58 12.1,-6.43 6.58,0.12 10.56,5.29 2.75,3.56 3.46,8.38 0.62,4.23 0.22,8.86 -0.4,4.61 -2.46,8.72 -2.16,4.28 -5.82,6.58 -8.25,5.19 -18.44,-1.47 a 0.95,0.84 -60.3 0 0 -1.26,0.43 l -1.06,2.07 a 0.9,0.77 10.5 0 1 -0.76,0.44 l -7.41,0.11 a 0.52,0.52 -0.5 0 1 -0.53,-0.52 v -54.17 a 0.87,0.87 45 0 1 0.87,-0.87 z m 10.91,46.67 q 3.36,3.37 7.7,2.69 2.53,-0.39 4.22,-2.53 1.64,-2.07 2.33,-4.62 0.7,-2.64 0.74,-6.45 0.03,-3.38 -1.02,-6.51 -1.2,-3.57 -4.31,-4.56 -2.78,-0.88 -5.61,0.58 -2.66,1.38 -4.85,4.39 a 2.61,2.52 -26.4 0 0 -0.49,1.37 q -0.41,7.66 -0.05,14.28 0.03,0.53 0.53,0.81 0.61,0.35 0.81,0.55 z"
       id="path34"
       style="fill:#b3b3b3" />
    <rect
       fill="#144459"
       fill-opacity="1"
       x="-5.25"
       y="-27.75"
       width="10.5"
       height="55.5"
       rx="0.56999999"
       transform="translate(914,635.75)"
       id="rect36"
       style="fill:#b3b3b3" />
    <rect
       fill="#144459"
       fill-opacity="1"
       x="-5.25"
       y="-4.3800001"
       width="10.5"
       height="8.7600002"
       rx="0.62"
       transform="rotate(-0.2,176195.37,-150455.17)"
       id="rect38"
       style="fill:#b3b3b3" />
    <rect
       fill="#144459"
       fill-opacity="1"
       x="-5.25"
       y="-4.3800001"
       width="10.5"
       height="8.7600002"
       rx="0.69999999"
       transform="rotate(-0.2,176260.5,-187769.01)"
       id="rect40"
       style="fill:#b3b3b3" />
    <path
       fill="#144459"
       fill-opacity="1"
       d="m 503.75,612.25 q 6.52,1.06 8.45,6.48 1.66,4.66 -0.62,9.4 -2.74,5.71 -9.83,7.62 -0.57,0.15 -0.55,0.7 a 0.74,0.59 5.6 0 0 0.6,0.58 q 6.52,1.22 10.7,5.97 1.66,1.89 2.16,4.82 1.51,8.96 -4.73,13.02 -2.9,1.88 -8.77,2.3 -9.96,0.71 -21,0.3 a 0.93,0.93 1 0 1 -0.9,-0.93 l 0.17,-50.32 a 0.54,0.53 -1.7 0 1 0.51,-0.53 q 14.73,-0.89 23.81,0.59 z m -3.92,7.95 q -4.08,-1.85 -9.72,-1.35 a 0.68,0.67 -2.8 0 0 -0.61,0.67 v 13.17 a 0.56,0.56 -1 0 0 0.58,0.56 q 1.92,-0.08 3.84,-0.36 2.2,-0.32 3.67,-1.07 5.58,-2.82 3.98,-9.51 a 3.11,3.1 5.6 0 0 -1.74,-2.11 z m -0.28,22.25 q -4.34,-2.65 -9.37,-2.08 a 0.59,0.57 -3.4 0 0 -0.52,0.57 v 14.62 a 0.57,0.54 2.3 0 0 0.53,0.54 q 4.21,0.26 8.3,-0.61 2.72,-0.58 3.93,-2.01 1.58,-1.88 1.27,-4.67 -0.47,-4.12 -4.14,-6.36 z"
       id="path42"
       style="fill:#b3b3b3" />
    <rect
       fill="#144459"
       fill-opacity="1"
       x="-5.4099998"
       y="-26"
       width="10.82"
       height="52"
       rx="0.41999999"
       transform="rotate(-0.2,183058.53,-245147.58)"
       id="rect44"
       style="fill:#b3b3b3" />
    <path
       fill="#144459"
       fill-opacity="1"
       d="m 572.48,627.68 q 1.29,1.61 1.7,3.41 0.33,1.45 1.17,0.22 5.22,-7.59 13.78,-6.98 3.28,0.24 5.33,1.93 2.31,1.91 3.23,5.05 0.03,0.12 0.38,3.62 0.18,1.81 0.18,3.63 0,12 0,24.42 a 0.52,0.52 0 0 1 -0.52,0.52 h -8.58 a 0.91,0.91 -89.7 0 1 -0.91,-0.92 q 0.19,-13.46 -0.24,-26.08 -0.07,-1.91 -1.57,-3.13 -1.25,-1.02 -3.09,-0.79 -5.07,0.65 -8.31,6.25 -0.53,0.91 -0.53,1.98 l -0.06,22.12 a 0.53,0.49 -89.5 0 1 -0.5,0.53 l -8.75,-0.11 a 0.56,0.53 89.4 0 1 -0.52,-0.54 q -0.38,-13.34 -0.17,-21.56 0.09,-3.31 -0.48,-5.51 -0.74,-2.89 -3.21,-3.29 -1.83,-0.29 -3.97,0.84 -2.97,1.59 -5.31,5.15 a 3.26,3.21 -28.8 0 0 -0.53,1.77 v 22.62 a 0.67,0.67 45 0 1 -0.67,0.67 h -8.77 A 0.56,0.56 -45 0 1 541,662.94 v -37.3 a 0.61,0.58 -89.5 0 1 0.59,-0.61 l 8.73,0.12 a 0.56,0.53 89.4 0 1 0.52,0.54 l 0.22,5.41 q 0.03,0.96 0.57,0.17 6.92,-10.12 17.84,-5.73 1.91,0.77 3.01,2.14 z"
       id="path46"
       style="fill:#b3b3b3" />
    <path
       fill="#144459"
       fill-opacity="1"
       d="m 701.78,626.52 q 2.63,2.02 3.41,5.04 1.17,4.54 1.01,13.44 -0.15,8.84 -0.26,17.73 a 0.78,0.78 -89.6 0 1 -0.78,0.77 h -8.76 a 0.91,0.9 0.6 0 1 -0.91,-0.92 q 0.17,-11.99 -0.15,-23.31 -0.11,-3.79 -1.15,-5.31 -2.06,-3 -6.72,-0.47 -2.98,1.62 -4.78,4.32 -1.19,1.79 -1.19,4.68 0,10.05 0,20.49 a 0.52,0.52 0 0 1 -0.52,0.52 h -9.17 a 0.56,0.56 -45 0 1 -0.56,-0.56 l -0.06,-37.26 a 0.53,0.51 89.4 0 1 0.5,-0.53 l 9.16,-0.11 a 0.6,0.58 87.4 0 1 0.59,0.56 q 0.2,3.63 0.03,4.89 -0.36,2.77 1.21,0.46 5.17,-7.58 13.67,-6.53 3.21,0.39 5.43,2.1 z"
       id="path48"
       style="fill:#b3b3b3" />
    <path
       fill="#144459"
       fill-opacity="1"
       d="m 738.46,628.32 a 0.7,0.66 -63.2 0 0 1.09,-0.4 l 0.59,-2.38 a 0.7,0.66 7.4 0 1 0.68,-0.5 l 8.25,0.11 a 0.55,0.52 89.4 0 1 0.51,0.53 q 0.44,14.69 -0.02,29.38 0.24,7.75 -1.31,12.94 -1.1,3.66 -5.06,6.69 -4.63,3.53 -12.44,3.5 -7.17,-0.03 -14.81,-2.45 a 0.79,0.74 11.6 0 1 -0.55,-0.78 l 0.59,-6.33 a 0.63,0.6 15.6 0 1 0.88,-0.47 q 6.51,3.01 13.25,2.51 3.85,-0.28 5.91,-1.94 2.64,-2.12 3.02,-6.03 0.26,-2.72 0.21,-5.46 -0.05,-2.5 -1.14,-0.25 -1.05,2.17 -3.3,3.86 -1.94,1.45 -4.49,2.12 -6.03,1.57 -10.86,-1.41 -4.02,-2.48 -6.15,-8.03 -4.02,-10.44 1.13,-21.09 2.55,-5.28 8.62,-7.27 8.61,-2.83 15.4,3.15 z m -13.59,24.09 q 2.68,3.08 5.94,2.63 4.31,-0.6 7.64,-5.13 a 4.18,4.18 -27 0 0 0.8,-2.46 v -11.71 a 1.29,1.28 23.9 0 0 -0.34,-0.87 q -2.76,-3.08 -4.66,-3.62 -3.83,-1.09 -6.66,0.69 -2.26,1.44 -3.55,4.97 -2.39,6.56 -0.17,13.71 0.31,1 1,1.79 z"
       id="path50"
       style="fill:#b3b3b3" />
    <path
       fill="#144459"
       fill-opacity="1"
       d="m 784.12,627.38 q 3.45,2.97 3.52,8.37 0.11,8.25 0.14,16.5 0.01,2.32 0.84,4.47 a 1.22,1.09 88.2 0 0 0.65,0.68 q 0.94,0.39 1.96,0.35 a 0.59,0.52 -3.8 0 1 0.6,0.46 l 0.42,4.5 a 1.08,0.89 -7.6 0 1 -0.92,0.99 q -2.79,0.43 -5.27,0.52 -4.99,0.17 -7.76,-4.47 a 0.52,0.52 -36.2 0 0 -0.79,-0.12 q -2.95,2.68 -6.47,3.86 -5.44,1.83 -10.02,-0.5 -2.98,-1.52 -4.48,-4.52 -1.55,-3.13 -1.18,-6.6 0.42,-3.89 3.3,-6.95 3.05,-3.25 7.15,-3.86 5.07,-0.75 11.11,-1.12 a 0.71,0.7 -87.5 0 0 0.66,-0.61 q 0.54,-4.22 -1.21,-6.51 -1.54,-2 -5.39,-2.09 -5.94,-0.14 -11.52,2.83 a 0.62,0.59 -14.2 0 1 -0.9,-0.51 l 0.07,-5.61 a 0.83,0.72 -11.4 0 1 0.53,-0.69 q 8.41,-3.3 17.18,-2.24 5.19,0.62 7.78,2.87 z m -16.43,29.18 q 4.6,1.65 9.3,-2.27 a 2.11,2 -21 0 0 0.75,-1.57 l -0.04,-6.17 a 0.55,0.52 1.8 0 0 -0.52,-0.52 q -4.05,-0.23 -7.91,1.05 -3.44,1.13 -3.86,4.75 -0.43,3.76 2.28,4.73 z"
       id="path52"
       style="fill:#b3b3b3" />
    <path
       fill="#144459"
       fill-opacity="1"
       d="m 829.23,627.65 q 2.96,3.27 2.98,8.35 0.04,13.12 0.04,26.94 a 0.56,0.56 45 0 1 -0.56,0.56 h -9.13 a 0.57,0.57 89.8 0 1 -0.57,-0.57 q 0.14,-12.18 -0.17,-23.8 -0.09,-3.42 -0.74,-4.65 -1,-1.88 -3.27,-2.07 -1.69,-0.14 -3.48,0.79 -3.12,1.61 -5.64,5.34 A 4.02,4.01 -28 0 0 808,640.79 V 663 a 0.58,0.57 0.5 0 1 -0.59,0.57 l -9.03,-0.06 a 0.89,0.87 0.3 0 1 -0.88,-0.87 v -36.59 a 1.04,1.03 90 0 1 1.03,-1.04 l 8.91,0.04 a 0.53,0.52 89.4 0 1 0.52,0.52 l 0.04,4.86 q 0.02,2.37 1.23,0.35 4.33,-7.19 12.58,-6.49 4.73,0.4 7.42,3.36 z"
       id="path54"
       style="fill:#b3b3b3" />
    <path
       fill="#144459"
       fill-opacity="1"
       d="m 897.26,625.43 a 0.95,0.94 6.5 0 1 0.74,0.92 v 5.61 a 0.67,0.67 -78.5 0 1 -0.93,0.62 q -5.54,-2.35 -11.59,-1.64 -2.47,0.29 -3.57,1.53 -1.33,1.5 -0.27,3.44 0.63,1.14 2.34,2.02 4.14,2.12 8.45,3.9 2.55,1.05 4.61,2.89 7.18,6.43 1.71,14.03 -2.8,3.9 -8.53,4.85 -9.54,1.59 -18.8,-1.14 a 0.75,0.66 9.4 0 1 -0.53,-0.65 l -0.09,-6.6 a 0.39,0.37 12 0 1 0.54,-0.33 q 7.05,3.09 14.92,2.87 1.83,-0.05 3,-1.45 1.85,-2.2 0.48,-4.31 -0.75,-1.15 -3.03,-2.3 -4.48,-2.25 -9.02,-4.38 -2.74,-1.29 -4.58,-3.52 -1.74,-2.12 -2.01,-5.14 -0.54,-6.06 3.69,-9.27 3.54,-2.7 10.45,-3.07 5.85,-0.31 12.02,1.12 z"
       id="path56"
       style="fill:#b3b3b3" />
    <path
       fill="#144459"
       fill-opacity="1"
       d="m 953.49,627.06 q 4.55,3.46 4.11,10.36 -0.14,2.11 -0.14,2.18 -0.25,7.97 0.54,15.9 0.26,2.63 2,2.25 2.56,-0.56 2.05,1.76 -0.24,1.11 -0.05,2.22 0.31,1.88 -1.13,2.08 -1.49,0.21 -1.58,0.24 -6.64,1.81 -10.95,-3.91 a 1.02,1.02 51 0 0 -1.48,-0.16 q -6.76,5.79 -13.88,3.7 -4.36,-1.29 -6.5,-5.17 -2.4,-4.35 -0.71,-9.06 1.49,-4.17 5.55,-6.53 3.87,-2.25 8.68,-2.42 3.53,-0.34 7.06,-0.64 a 0.65,0.6 -0.2 0 0 0.58,-0.54 q 0.07,-0.77 -0.14,-1.57 0.6,-6.92 -5.81,-7.19 -5.91,-0.25 -12.49,2.97 a 0.36,0.34 -14.5 0 1 -0.52,-0.28 l -0.12,-5.89 a 0.96,0.86 -11.2 0 1 0.64,-0.85 q 7.16,-2.51 14.67,-2.21 6.31,0.25 9.62,2.76 z m -16.3,29.25 a 3.42,3.4 65.1 0 0 2.54,0.94 q 4.57,-0.24 7.62,-3.45 a 1.3,0.95 72.7 0 0 0.29,-0.85 l -0.11,-6.17 a 0.73,0.68 -89.2 0 0 -0.65,-0.72 q -4.23,-0.22 -7.49,0.96 -2.96,1.07 -3.92,3.43 -1.24,3.05 1.72,5.86 z"
       id="path58"
       style="fill:#b3b3b3" />
    <path
       fill="#144459"
       fill-opacity="1"
       d="m 997.07,626.05 q 2.43,1.78 3.72,5.23 0.42,1.11 1.08,0.13 2.72,-4.01 6.57,-5.86 3.97,-1.91 8.31,-1.12 7.44,1.34 7.77,10.51 0.5,13.94 0.06,27.87 a 0.56,0.53 -89.4 0 1 -0.52,0.54 l -8.83,0.13 a 0.49,0.47 89.4 0 1 -0.48,-0.49 q 0,-10.62 0,-21.24 0,-3.54 -0.71,-6.02 -0.73,-2.57 -2.96,-3.15 -2.44,-0.63 -4.91,1.08 -2.75,1.92 -4.64,4.67 a 1.79,1.61 -29.9 0 0 -0.3,0.92 l -0.22,23.44 a 0.99,0.96 -88.6 0 1 -1,0.98 l -8.32,-0.34 a 0.54,0.54 45 0 1 -0.52,-0.52 q -0.36,-12.44 -0.17,-21.56 0.07,-3.26 -0.63,-5.71 -0.77,-2.72 -3.15,-3.09 -1.75,-0.27 -3.8,0.8 -3.02,1.59 -5.39,5.19 a 3.26,3.21 -28.8 0 0 -0.53,1.77 v 22.62 a 0.67,0.67 45 0 1 -0.67,0.67 h -8.77 a 0.56,0.56 -45 0 1 -0.56,-0.56 v -37.32 a 0.58,0.55 -89.5 0 1 0.56,-0.58 l 8.75,0.11 a 0.57,0.54 0.5 0 1 0.56,0.54 l -0.01,5.56 q 0,1.1 0.57,0.2 4.83,-7.69 13.33,-7.18 3.66,0.22 5.81,1.78 z"
       id="path60"
       style="fill:#b3b3b3" />
    <rect
       fill="#144459"
       fill-opacity="1"
       x="-5.25"
       y="-19.25"
       width="10.5"
       height="38.5"
       rx="0.43000001"
       transform="translate(526.25,644.25)"
       id="rect62"
       style="fill:#b3b3b3" />
    <rect
       fill="#144459"
       fill-opacity="1"
       x="-5.25"
       y="-19.25"
       width="10.5"
       height="38.5"
       rx="0.50999999"
       transform="translate(656.5,644.25)"
       id="rect64"
       style="fill:#b3b3b3" />
  </g>
</svg>
